<svg width="31" height="30" viewBox="0 0 31 30" fill="none" xmlns="http://www.w3.org/2000/svg">
<path fill-rule="evenodd" clip-rule="evenodd" d="M15.5 1C7.48875 1 1 7.48875 1 15.5C1 21.9163 5.15062 27.3356 10.9144 29.2569C11.6394 29.3838 11.9112 28.9488 11.9112 28.5681C11.9112 28.2238 11.8931 27.0819 11.8931 25.8675C8.25 26.5381 7.3075 24.9794 7.0175 24.1638C6.85438 23.7469 6.1475 22.46 5.53125 22.1156C5.02375 21.8438 4.29875 21.1731 5.51313 21.155C6.655 21.1369 7.47063 22.2063 7.7425 22.6413C9.0475 24.8344 11.1319 24.2181 11.9656 23.8375C12.0925 22.895 12.4731 22.2606 12.89 21.8981C9.66375 21.5356 6.2925 20.285 6.2925 14.7388C6.2925 13.1619 6.85438 11.8569 7.77875 10.8419C7.63375 10.4794 7.12625 8.99313 7.92375 6.99938C7.92375 6.99938 9.13812 6.61875 11.9112 8.48563C13.0712 8.15938 14.3037 7.99625 15.5362 7.99625C16.7687 7.99625 18.0012 8.15938 19.1613 8.48563C21.9344 6.60063 23.1488 6.99938 23.1488 6.99938C23.9463 8.99313 23.4388 10.4794 23.2938 10.8419C24.2181 11.8569 24.78 13.1438 24.78 14.7388C24.78 20.3031 21.3906 21.5356 18.1644 21.8981C18.69 22.3513 19.1431 23.2213 19.1431 24.5806C19.1431 26.52 19.125 28.0788 19.125 28.5681C19.125 28.9488 19.3969 29.4019 20.1219 29.2569C23.0004 28.2851 25.5017 26.4352 27.2737 23.9673C29.0458 21.4995 29.9993 18.5382 30 15.5C30 7.48875 23.5113 1 15.5 1Z" stroke="#F2CD9C" stroke-linejoin="round"/>
</svg>
